<svg width="0" height="0" fill="none" style="visibility: hidden; position: absolute;" aria-hidden="true">
    <symbol id="loot-armor" enable-background="new 0 0 512 512" height="512px" viewBox="0 0 512 512" width="512px" xml:space="preserve" xmlns="http://www.w3.org/2000/svg">
        <linearGradient gradientUnits="userSpaceOnUse" id="SVGID_1___loot-armor" x1="255.8799" x2="255.8799" y1="467.6563" y2="161.3456">
            <stop offset="0" style="stop-color:#CC5697"/>
            <stop offset="1" style="stop-color:#8E3979"/>
        </linearGradient>
        <path d="M388.938,78.947c-0.751-10.932-9.838-19.415-20.796-19.415H255.88H146.103 c-10.889,0-19.942,8.381-20.782,19.237l-22.314,288.333c-0.343,18.889,7.863,36.955,22.436,48.979 c23.437,19.34,64.007,48.741,117.906,72.305c7.975,3.485,17.09,3.485,25.064,0c53.898-23.563,94.469-52.965,117.906-72.305 c14.571-12.024,22.777-30.091,22.435-48.979L388.938,78.947z" fill="url(#SVGID_1___loot-armor)"/>
        <path d="M356.442,214.607c0,0-10.946,47.027-8.96,87.547c0.211,4.291-1.557,8.439-4.703,11.364 c-7.137,6.634-21.877,19.222-45.183,34.054C297.597,347.572,287.265,238.415,356.442,214.607z" fill="#819FEA"/>
        <path d="M155.558,214.607c0,0,10.946,47.027,8.96,87.547c-0.211,4.291,1.557,8.439,4.703,11.364 c7.137,6.634,21.877,19.222,45.183,34.054C214.403,347.572,224.735,238.415,155.558,214.607z" fill="#FFFFFF"/>
        <path d="M177.839,321.074c8.249,6.908,20.268,16.127,36.564,26.498c0,0,4.458-63.892-26.219-110.058 C194.31,270.041,204.554,304.594,177.839,321.074z" fill="#C7DAFF"/>
        <path d="M207.234,264.084c-7.671-25.656-22.669-39.494-51.677-49.477c0,0,1.371,5.901,3.054,15.3 C165.591,234.505,185.254,245.484,207.234,264.084z" fill="#819FEA"/>
        <path d="M116.606,36.749l26.591,26.97c6.084,6.172,9.468,14.51,9.303,23.175 c-0.514,26.892-9.313,82.28-73.291,80.748c0,0-50.864,0.458-74.052-54.041c-1.841-4.327,0.654-9.321,5.194-10.545 c17.79-4.794,59.726-20.167,87.783-63.17c1.999-3.065,5.022-5.448,8.61-6.168C109.765,33.111,113.379,33.475,116.606,36.749z" fill="#FFFFFF"/>
        <path d="M27.277,110.997c28.994,0.741,55.828-14.918,71.089-39.582c6.293-10.169,11.858-23.088,13.021-37.676 c-1.611-0.368-3.196-0.313-4.643-0.022c-3.588,0.72-6.611,3.104-8.61,6.168c-28.058,43.003-69.993,58.376-87.783,63.17 c-2.512,0.677-4.359,2.522-5.23,4.756C10.365,109.21,18.101,110.762,27.277,110.997z" fill="#819FEA"/>
        <path d="M303.908,278.139c16.354-23.814,40.549-41.418,49.322-47.337c1.754-9.918,3.212-16.194,3.212-16.194 C326.342,224.966,311.304,251.485,303.908,278.139z" fill="#819FEA"/>
        <path d="M342.588,224.278c-32.667,18.659-86.505,57.548-86.718,57.702c-0.214-0.154-54.052-39.043-86.718-57.702 c-0.449-0.256-0.907,0.319-0.553,0.697c8.948,9.546,41.252,49.083,38.004,119.423c-0.146,3.172,1.218,6.215,3.757,8.123 c7.341,5.518,24.104,17.219,45.499,26.486c0,0,38.314-21.045,45.52-26.486c2.534-1.914,3.903-4.951,3.757-8.123 c-3.247-70.341,29.056-109.877,38.005-119.423C343.494,224.598,343.036,224.022,342.588,224.278z" fill="#FFFFFF"/>
        <path d="M342.611,224.265c-32.664,18.654-86.528,57.562-86.741,57.716h-0.001v38.471 c0,16.534-12.903,30.654-29.433,31.092c-7.447,0.197-14.444-1.239-18.877-2.434c0.64,1.337,1.575,2.53,2.801,3.451 c7.344,5.52,24.114,17.227,45.52,26.494v-0.059c0.394-0.217,38.331-21.063,45.499-26.475c2.534-1.914,3.903-4.951,3.757-8.123 c-3.248-70.352,29.065-109.889,38.009-119.428C343.496,224.596,343.058,224.01,342.611,224.265z" fill="#C7DAFF"/>
        <path d="M342.588,224.278c-32.667,18.659-86.505,57.548-86.718,57.702c-0.214-0.154-54.052-39.043-86.718-57.702 c-0.449-0.256-0.907,0.319-0.553,0.697c2.576,2.749,10.676,13.794,15.719,21.535c17.398,12.146,39.061,28.756,71.551,53.881 c33.421-25.125,53.443-38.088,69.701-47.27c5.043-7.741,14.993-25.397,17.57-28.146 C343.494,224.598,343.036,224.022,342.588,224.278z" fill="#819FEA"/>
        <path d="M369.938,185.458c-22.293,17.219-114.047,47.054-114.059,47.058c-0.012-0.004-91.766-29.839-114.058-47.058 c-0.604-0.467-1.422,0.15-1.145,0.862l10.185,26.186c1.072,2.756,2.933,5.135,5.348,6.841l99.67,70.385v0.001v-0.001l0.001,0.001 v-0.001l99.669-70.385c2.415-1.706,4.275-4.085,5.348-6.841l10.185-26.186C371.358,185.608,370.541,184.991,369.938,185.458z" fill="#FFFFFF"/>
        <path d="M230.004,271.46l25.876,18.273v-57.218c0,0-42.604-13.856-76.808-28.133 C198.101,219.646,220.619,242.681,230.004,271.46z" fill="#DEEEFF"/>
        <path d="M200.478,21c0,0-7.829,27.402,15.249,49.317c3.152,2.994,3.933,7.729,2.077,11.661l-19.554,41.44 c0,0-48.083,2.246-65.152-28.3l1.797-27.851C134.895,67.269,165.439,36.273,200.478,21z" fill="#819FEA"/>
        <path d="M126.809,61.429c0,0,17.573-21.002,43.798-31.972c4.344-1.817,9.259,0.783,10.108,5.414 c1.623,8.854,4.073,23.56,5.553,38.841c1.926,19.875-13.67,37.717-33.636,37.436c-0.911-0.013-1.843-0.054-2.793-0.125 L126.809,61.429z" fill="#8C266B"/>
        <path d="M311.522,21c0,0,7.829,27.402-15.249,49.317c-3.152,2.994-3.933,7.729-2.077,11.661l19.554,41.44 c0,0,48.083,2.246,65.152-28.3l-1.797-27.851C377.105,67.269,346.56,36.273,311.522,21z" fill="#819FEA"/>
        <path d="M385.191,61.429c0,0-17.573-21.002-43.798-31.972c-4.344-1.817-9.259,0.783-10.108,5.414 c-1.623,8.854-4.073,23.56-5.554,38.841c-1.925,19.875,13.671,37.717,33.637,37.436c0.911-0.013,1.843-0.054,2.793-0.125 L385.191,61.429z" fill="#8C266B"/>
        <path d="M319.83,37.695c-1.206-5.692-3.748-11.557-8.549-16.695c0,0-12.986,29.232-55.401,29.232 C213.464,50.232,200.479,21,200.479,21c-4.802,5.139-7.344,11.003-8.55,16.695c-4.11,19.405,7.276,38.972,25.778,46.123 c17.945,6.936,38.173,6.229,38.173,6.229s20.228,0.707,38.172-6.229C312.554,76.667,323.941,57.101,319.83,37.695z" fill="#5071BA"/>
        <path d="M304.814,81.771c-2.042-3.973-6.135-6.471-10.602-6.471H255.88h-38.334c-4.467,0-8.559,2.498-10.601,6.471 l-17.887,34.796c25.455,28.54,66.821,34.325,66.821,34.325s41.366-5.785,66.82-34.325L304.814,81.771z" fill="#FFFFFF"/>
        <path d="M322.7,116.567l-17.886-34.796c-2.042-3.973-6.135-6.471-10.602-6.471H255.88v75.592 C255.88,150.892,297.246,145.106,322.7,116.567z" fill="#C7DAFF"/>
        <path d="M315.114,101.341c-5.009,2.546-14.495,7.24-26.536,12.1c-21.017,8.482-44.463,8.468-65.458-0.066 c-11.898-4.836-21.248-9.5-26.234-12.034l-7.827,15.226c25.455,28.54,66.821,34.325,66.821,34.325s41.606-5.785,67.062-34.325 L315.114,101.341z" fill="#819FEA"/>
        <path d="M369.938,185.458c-22.291,17.218-114.037,47.05-114.058,47.058v57.217l99.669-70.385 c2.415-1.706,4.275-4.085,5.348-6.841l10.185-26.186C371.358,185.608,370.541,184.991,369.938,185.458z" fill="#C7DAFF"/>
        <path d="M369.938,185.458c-22.293,17.219-114.047,47.054-114.059,47.058c-0.012-0.004-91.766-29.839-114.058-47.058 c-0.604-0.467-1.422,0.15-1.145,0.862l5.248,13.494c17.483,9.881,74.367,41.479,109.944,54.778c0,0,67.738-26.227,109.907-54.633 l5.305-13.639C371.358,185.608,370.541,184.991,369.938,185.458z" fill="#819FEA"/>
        <path d="M411.631,157.347l-39.61-47.533c-5.513-6.614-13.677-10.438-22.287-10.438c-5.98,0-11.813,1.822-16.69,5.284 c-13.251,9.407-43.496,28.746-77.164,35.94c-33.669-7.195-63.915-26.534-77.165-35.94c-4.877-3.462-10.71-5.284-16.69-5.284 c-8.61,0-16.775,3.824-22.287,10.438l-39.611,47.533c53.449,55.381,155.752,83.093,155.752,83.093S358.182,212.728,411.631,157.347z " fill="#FFFFFF"/>
        <path d="M176.761,209.076c-20.626-17.934-32.199-44.612-29.381-71.799c1.944-18.757,9.89-31.254,15.371-37.847 c-0.244-0.006-0.482-0.056-0.728-0.056c-8.61,0-16.775,3.824-22.287,10.438l-39.611,47.533 c21.657,22.44,51.325,40.332,78.962,53.681C178.299,210.378,177.51,209.728,176.761,209.076z" fill="#C7DAFF"/>
        <path d="M255.88,240.439v-56.871c-3.71,21.197-14.596,43.046-43.805,41.863 C237.4,235.424,255.88,240.439,255.88,240.439z" fill="#C7DAFF"/>
        <path d="M411.631,157.347l-39.61-47.533c-5.513-6.614-13.677-10.438-22.287-10.438c-5.98,0-11.813,1.822-16.69,5.284 c-13.251,9.407-43.496,28.746-77.164,35.94v99.84C255.906,240.431,358.189,212.721,411.631,157.347z" fill="#C7DAFF"/>
        <path d="M152.5,86.894c0.165-8.666-3.219-17.003-9.303-23.175l-26.591-26.97c-3.228-3.274-6.842-3.638-9.861-3.032 c-0.171,0.035-0.323,0.118-0.491,0.159c-1.749,7.44-3.271,14.286-3.258,15.535c0.764,72.478-27.937,103.65-42.92,114.971 c11.111,3.318,19.133,3.259,19.133,3.259C143.188,169.174,151.986,113.786,152.5,86.894z" fill="#DEEEFF"/>
        <path d="M106.745,33.717c-3.588,0.72-6.611,3.104-8.61,6.168c-8.959,13.73-19.333,24.619-29.884,33.271 c9.452-1.689,19.37-1.866,28.165,1.201c0.658-0.974,1.329-1.938,1.95-2.942c6.293-10.169,11.858-23.088,13.021-37.676 C109.776,33.371,108.191,33.427,106.745,33.717z" fill="#819FEA"/>
        <path d="M395.394,36.749l-26.591,26.97c-6.084,6.172-9.468,14.51-9.303,23.175 c0.514,26.892,9.313,82.28,73.291,80.748c0,0,50.864,0.458,74.052-54.041c1.841-4.327-0.654-9.321-5.194-10.545 c-17.79-4.794-59.727-20.167-87.783-63.17c-1.999-3.065-5.022-5.448-8.61-6.168C402.235,33.111,398.621,33.475,395.394,36.749z" fill="#FFFFFF"/>
        <path d="M501.648,103.056c-17.79-4.794-59.727-20.167-87.783-63.17c-1.999-3.065-5.022-5.448-8.61-6.168 c-0.254-0.051-0.519-0.083-0.78-0.12c10.393,19.826,36.815,78.861,16.63,133.646c3.678,0.351,7.563,0.498,11.687,0.399 c0,0,50.864,0.458,74.052-54.041C508.684,109.274,506.188,104.279,501.648,103.056z" fill="#DEEEFF"/>
        <path d="M484.723,110.997c-28.994,0.741-55.828-14.918-71.09-39.582c-6.292-10.169-11.857-23.088-13.021-37.676 c1.612-0.368,3.196-0.313,4.643-0.022c3.588,0.72,6.611,3.104,8.61,6.168c28.058,43.003,69.992,58.376,87.783,63.17 c2.512,0.677,4.359,2.522,5.23,4.756C501.635,109.21,493.899,110.762,484.723,110.997z" fill="#819FEA"/>
        <path d="M292.473,148.836c-7.966-2.337-16.68,2.919-20.912,8.367c-0.465,0.598-0.765,1.226-0.959,1.859 c-4.807,14.603,4.693,22.51,5.298,22.794c7.002,5.544,14.308-5.699,16.802-10.932C295.558,164.93,300.758,151.267,292.473,148.836z" fill="#FFFFFF"/>
        <path d="M312.383,135.831c-0.145,0-0.289,0-0.434,0c-2.791,0-5.464,2.453-5.335,5.334 c0.13,2.89,2.345,5.334,5.335,5.334c0.145,0,0.289,0,0.434,0c2.791,0,5.464-2.454,5.335-5.334 C317.588,138.274,315.374,135.831,312.383,135.831z" fill="#FFFFFF"/>
    </symbol>
    <symbol id="loot-map" enable-background="new 0 0 512 512" height="512px" viewBox="0 0 512 512" width="512px" xml:space="preserve" xmlns="http://www.w3.org/2000/svg">
        <circle cx="72.542" cy="63.845" fill="#FFBF76" r="21.845"/>
        <path d="M67.61,42.58c-9.686,2.238-16.914,10.899-16.914,21.265c0,10.366,7.228,19.026,16.913,21.265 c5.729-5.294,9.337-12.849,9.337-21.265S73.338,47.875,67.61,42.58z" fill="#FFD9BE"/>
        <linearGradient gradientUnits="userSpaceOnUse" id="SVGID_1___loot-map" x1="218.9883" x2="332.9009" y1="185.4399" y2="529.0007">
            <stop offset="0.0103" style="stop-color:#A84A78"/>
            <stop offset="1" style="stop-color:#C36C9A"/>
        </linearGradient>
        <path d="M8.963,317.887C48.476,291.35,179.168,203.231,215.1,174.655c4.479-3.562,10.441-4.596,15.853-2.734 c25.923,8.92,101.317,34.708,135.479,44.713c4.355,1.276,6.545,6.113,4.659,10.242l-15.641,34.246l40.942-27.861 c2.646-1.801,5.971-2.272,9.009-1.265c14.693,4.872,60.127,19.768,94.329,29.163c6.722,1.846,9.011,10.193,4.152,15.191 c-23.237,23.902-77.256,79.354-99.357,101.067c-1.247,1.225-2.875,1.968-4.617,2.11l-29.851,2.438l8.77,7.972 c3.169,2.881,3.272,7.827,0.216,10.827c-13.654,13.409-48.672,47.802-65.389,64.268c-5.209,5.133-13.076,6.426-19.657,3.238 l-126.162-61.087c-3.18-1.54-4.842-5.1-3.981-8.526l3.693-14.7l-29.756,15.281c-2.376,1.22-5.203,1.087-7.444-0.366 c-13.158-8.533-61.13-38.897-120.383-67.474C4.525,328.773,3.95,321.254,8.963,317.887z" fill="url(#SVGID_1___loot-map)"/>
        <path d="M435.011,289.653c4.71-4.418,3.083-12.237-3.001-14.401c-15.798-5.621-38.645-13.965-63.401-23.084 l-13.158,8.954l5.396-11.815c-50.595-18.666-106.828-39.678-126.805-47.151c-4.681-1.751-9.903-0.994-13.885,2.027 c-30.374,23.037-117.562,87.625-146.712,109.202c-3.983,2.949-3.176,9.13,1.445,10.922c26.648,10.333,69.443,33.023,69.443,33.023 c38.745,20.909,114.45,51.946,139.998,62.263c5.277,2.131,11.272,0.998,15.414-2.906 C329.742,388.406,406.973,315.951,435.011,289.653z" fill="#FFE7D0"/>
        <path d="M313.844,352.27l-11.662-10.465c-0.823-0.738-1.956-1.027-3.033-0.772l-19.018,4.504l-9.876-10.673 c-0.809-0.873-2.016-1.256-3.179-1.01l-15.138,3.212c-2.488,0.527-3.521,3.511-1.893,5.464l7.053,8.462l-20.123,4.766 c-2.599,0.615-3.488,3.86-1.566,5.716l10.987,10.602c0.827,0.798,2.003,1.121,3.122,0.855l21.608-5.109l11.178,13.411 c0.868,1.042,2.274,1.462,3.572,1.069l16.928-5.122c2.387-0.723,3.193-3.694,1.499-5.525l-8.866-9.581l16.93-4.004 C315.019,357.441,315.873,354.09,313.844,352.27z" fill="#C14C82"/>
        <ellipse cx="231.374" cy="233.066" fill="#C14C82" rx="10.692" ry="9.737" transform="matrix(0.9645 0.2639 -0.2639 0.9645 69.714 -52.8006)"/>
        <path clip-rule="evenodd" d="M310.201,301.695l-10.238,0.115 c0.04,6.678-0.657,13.466-2.095,20.193l10.029,2.063C309.451,316.771,310.251,309.257,310.201,301.695z" fill="#C14C82" fill-rule="evenodd"/>
        <path clip-rule="evenodd" d="M298.315,262.896l-8.312,5.979 c3.688,5.231,6.505,11.084,8.043,17.41l9.919-2.54C306.146,276.293,302.773,269.186,298.315,262.896z" fill="#C14C82" fill-rule="evenodd"/>
        <path clip-rule="evenodd" d="M265.768,238.878l-3.554,9.602 c6.178,2.325,12.101,5.465,17.21,9.495l6.286-8.083C279.678,245.152,272.88,241.553,265.768,238.878z" fill="#C14C82" fill-rule="evenodd"/>
        <path d="M73.542,93.448c4.081-4.909,12.269-11.751,26.009-11.311c2.882,0.092,5.521,1.679,7.101,4.091l43.702,66.754 l-40.028,23.814c0,0-23.957-41.924-38.043-73.935C70.901,99.726,71.351,96.084,73.542,93.448z" fill="#B75798"/>
        <path d="M71.857,102.551c4.146-5.862,14.205-16.875,31.621-17.626c2.262-0.098,3.547-2.607,2.206-4.431l-1.205-1.639 c-3.149-4.283-8.559-6.316-13.717-5.03c-5.939,1.48-13.967,4.725-21.546,11.822c-4.655,4.358-5.476,11.472-2.003,16.821l0.013,0.021 C68.306,104.154,70.71,104.172,71.857,102.551z" fill="#FFD9BE"/>
        <path d="M113.882,174.682l36.472-21.698l-43.702-66.754c-1.58-2.413-4.219-3.999-7.101-4.091 c-2.83-0.091-5.368,0.186-7.739,0.633C106.99,100.186,134.428,139.13,113.882,174.682z" fill="#7F2467"/>
        <path d="M89.876,87.922c3.914-1.632,8.425-2.774,13.601-2.997c2.262-0.098,3.547-2.607,2.206-4.431l-1.205-1.639 c-3.149-4.283-8.559-6.316-13.717-5.03c-1.687,0.42-3.554,1.005-5.52,1.758C87.703,78.124,90.149,82.149,89.876,87.922z" fill="#FFBF76"/>
        <linearGradient gradientUnits="userSpaceOnUse" id="SVGID_2___loot-map" x1="183.4746" x2="129.2596" y1="256.2935" y2="166.6726">
            <stop offset="0" style="stop-color:#FFFFFF"/>
            <stop offset="1" style="stop-color:#C7DAFF"/>
        </linearGradient>
        <path d="M106.229,191.664c0,0,37.804,65.307,57.192,88.266h55.103c0,0-38.314-93.878-56.147-121.94 L106.229,191.664z" fill="url(#SVGID_2___loot-map)"/>
        <linearGradient gradientUnits="userSpaceOnUse" id="SVGID_3___loot-map" x1="106.2285" x2="218.5234" y1="218.9595" y2="218.9595">
            <stop offset="0" style="stop-color:#819FEA"/>
            <stop offset="1" style="stop-color:#A7C1FC"/>
        </linearGradient>
        <path d="M218.523,279.93c0,0-38.314-93.878-56.147-121.94l-56.147,33.674c0,0,0.684,1.179,1.885,3.231 c14.962,4.643,42.24,13.606,42.24,13.606l40.406,71.429H218.523z" fill="url(#SVGID_3___loot-map)"/>
        <path d="M61.608,198.513l128.116-71.255c3.678-2.046,8.089-2.519,12.027-1.035c3.902,1.47,8.382,4.226,10.667,9.368 c0,0,0.076,0.159,0.197,0.455c5.552,13.566-8.891,27.15-22.021,20.633c-1.241-0.616-2.434-1.364-3.508-2.274 c-2.021-1.711-4.872-2.014-7.157-0.676l-9.544,5.587c-1.087,0.636-1.954,1.589-2.485,2.732l-14.96,32.203 c-1.562,3.361-5.012,5.433-8.713,5.232l-41.098-2.235c-1.099-0.06-2.193,0.174-3.171,0.679l-10.602,5.468 c-2.282,1.177-3.611,3.625-3.308,6.174c0.29,2.436,0.392,5.809-0.325,9.673c-1.353,7.297-8.325,12.188-15.646,10.969 c-0.151-0.025-0.303-0.051-0.455-0.078c-11.988-2.141-19.315-15.157-13.641-25.931c0.282-0.536,0.593-1.063,0.936-1.578 C58.083,200.873,59.771,199.535,61.608,198.513z" fill="#FFD9BE"/>
        <path d="M152.939,194.25l14.961-32.203c0.531-1.143,1.397-2.096,2.485-2.732l9.544-5.586 c2.285-1.338,5.137-1.035,7.157,0.677c1.074,0.909,2.267,1.657,3.508,2.273c13.13,6.517,27.573-7.067,22.021-20.633 c-0.121-0.295-0.197-0.455-0.197-0.455c-2.285-5.142-6.766-7.898-10.667-9.368c-3.938-1.484-8.349-1.011-12.027,1.035 l-60.711,33.767c5.314,6.163,14.505,19.278,17.27,38.31C149.16,198.827,151.674,196.975,152.939,194.25z" fill="#FFBF76"/>
        <linearGradient gradientUnits="userSpaceOnUse" id="SVGID_4___loot-map" x1="147.1084" x2="236.5098" y1="279.709" y2="279.709">
            <stop offset="0.0103" style="stop-color:#A84A78"/>
            <stop offset="1" style="stop-color:#C36C9A"/>
        </linearGradient>
        <path d="M148.047,280.744c-1.222-0.104-1.265-1.882-0.048-2.033c8.67-1.077,23.229-2.506,40.548-2.693 c0,0,25.725-0.773,47.108,2.572c1.186,0.186,1.117,1.924-0.078,2.032c-10.809,0.978-31.43,2.667-46.784,2.856 c-0.024,0-0.023,0.001-0.048,0C188.156,283.447,165.795,282.267,148.047,280.744z" fill="url(#SVGID_4___loot-map)"/>
    </symbol>
    <symbol id="loot-material" enable-background="new 0 0 512 512" height="512px" viewBox="0 0 512 512" width="512px" xml:space="preserve" xmlns="http://www.w3.org/2000/svg">
        <circle cx="256" cy="51.255" fill="#C7DAFF" r="8.626"/>
        <path d="M237.901,57.425c0,0-113.113,5.347-113.113,143.963h113.113V57.425z" fill="#FFFFFF"/>
        <path d="M274.099,57.425c0,0,113.113,5.347,113.113,143.963H274.099V57.425z" fill="#C7DAFF"/>
        <path d="M256,233.39H148.468v136.648c0,8.557,8.575,14.362,16.572,11.32c17.129-6.517,47.503-14.835,90.96-14.835 s73.831,8.318,90.96,14.835c7.997,3.042,16.572-2.764,16.572-11.32V233.39H256z" fill="#8C266B"/>
        <path d="M140.446,201.388h97.455V66.648C229.48,134.018,203.799,178.27,140.446,201.388z" fill="#C7DAFF"/>
        <path d="M271.014,51.255H256h-15.014c-3.066,0-5.553,2.486-5.553,5.553v141.701H256h20.566V56.808 C276.566,53.741,274.08,51.255,271.014,51.255z" fill="#FFFFFF"/>
        <linearGradient gradientUnits="userSpaceOnUse" id="SVGID_1___loot-material" x1="140.4458" x2="140.4458" y1="449.0078" y2="277.4065">
            <stop offset="0" style="stop-color:#CC5697"/>
            <stop offset="1" style="stop-color:#8E3979"/>
        </linearGradient>
        <path d="M131.423,245.289c-1.552,18.332-9.396,103.005-26.645,164.654c-1.132,4.045-0.538,8.384,1.803,11.872 c6.762,10.077,24.187,31.024,60.022,46.921c4.937,2.191,10.444-1.576,10.045-6.963c-1.963-26.494-6.161-95.002-3.053-162.698 c0,0-31.056-17.519-40.996-53.852C132.419,244.565,131.48,244.609,131.423,245.289z" fill="url(#SVGID_1___loot-material)"/>
        <linearGradient gradientUnits="userSpaceOnUse" id="SVGID_2___loot-material" x1="371.5547" x2="371.5547" y1="444.3154" y2="284.2495">
            <stop offset="0" style="stop-color:#CC5697"/>
            <stop offset="1" style="stop-color:#8E3979"/>
        </linearGradient>
        <path d="M380.577,245.289c1.552,18.332,9.396,103.005,26.645,164.654c1.132,4.045,0.538,8.384-1.803,11.872 c-6.763,10.077-24.187,31.024-60.022,46.921c-4.937,2.191-10.444-1.576-10.045-6.963c1.963-26.494,6.161-95.002,3.053-162.698 c0,0,31.055-17.519,40.997-53.852C379.581,244.565,380.52,244.609,380.577,245.289z" fill="url(#SVGID_2___loot-material)"/>
        <path d="M158.828,238.666c0,0,5.611,54.24,86.889,50.188l-0.54,28.99c0,0-105.364,12.781-116.274-79.178H158.828z" fill="#FFFFFF"/>
        <circle cx="256" cy="103.039" fill="#C7DAFF" r="8.626"/>
        <circle cx="256" cy="158.58" fill="#C7DAFF" r="8.626"/>
        <path d="M353.172,238.666c0,0-5.611,54.24-86.889,50.188l0.54,28.99c0,0,105.364,12.781,116.274-79.178H353.172z" fill="#FFFFFF"/>
        <path d="M256,238.666h-13.941v82.299c0,4.818,3.906,8.725,8.726,8.725H256h5.216c4.819,0,8.726-3.906,8.726-8.725 v-82.299H256z" fill="#C7DAFF"/>
        <path d="M274.099,201.388h113.113c0-4.414-0.12-8.687-0.343-12.835H274.099V201.388z" fill="#819FEA"/>
        <path d="M347.06,255.698h32.618c1.512-5.245,2.691-10.888,3.42-17.033h-29.926 C353.172,238.666,352.375,246.34,347.06,255.698z" fill="#819FEA"/>
        <path d="M158.828,238.666h-29.926c0.729,6.145,1.908,11.788,3.421,17.033h32.616 C159.626,246.34,158.828,238.666,158.828,238.666z" fill="#819FEA"/>
        <polygon fill="#819FEA" points="242.059,238.666 242.059,255.697 269.941,255.697 269.941,238.666 256,238.666"/>
        <path d="M125.131,188.553c-0.223,4.148-0.343,8.421-0.343,12.835h113.113v-12.835H125.131z" fill="#819FEA"/>
        <polygon fill="#C7DAFF" points="235.434,188.553 235.434,198.509 256,198.509 276.566,198.509 276.566,188.553"/>
        <path d="M388.857,198.509H256H123.143c-3.407,0-6.17,2.762-6.17,6.17v30.849c0,3.408,2.763,6.17,6.17,6.17H256 h132.857c3.407,0,6.17-2.762,6.17-6.17v-30.849C395.027,201.271,392.265,198.509,388.857,198.509z" fill="#FFFFFF"/>
        <circle cx="142.626" cy="220.104" fill="#C7DAFF" r="8.625"/>
        <circle cx="199.313" cy="220.104" fill="#C7DAFF" r="8.626"/>
        <circle cx="256" cy="220.104" fill="#C7DAFF" r="8.626"/>
        <circle cx="369.374" cy="220.104" fill="#C7DAFF" r="8.625"/>
        <circle cx="312.687" cy="220.104" fill="#C7DAFF" r="8.626"/>
    </symbol>
    <symbol id="loot-potion" enable-background="new 0 0 512 512" height="512px" viewBox="0 0 512 512" width="512px" xml:space="preserve" xmlns="http://www.w3.org/2000/svg">
        <path d="M256,22.974h-27.656c-4.731,0-8.367,4.188-7.705,8.872l4.904,34.683H256h30.457l4.904-34.683 c0.662-4.685-2.974-8.872-7.705-8.872H256z" fill="#BA8280"/>
        <polygon fill="#965C5C" points="222.464,44.751 225.543,66.528 256,66.528 286.457,66.528 289.536,44.751"/>
        <linearGradient gradientUnits="userSpaceOnUse" id="SVGID_1___loot-potion" x1="256" x2="256" y1="475.6611" y2="-13.8296">
            <stop offset="0.0103" style="stop-color:#FFCCE0"/>
            <stop offset="1" style="stop-color:#FFE6FA"/>
        </linearGradient>
        <path d="M328.733,181.56l0.087,0.01c-0.048-0.01-0.091-0.026-0.139-0.036 c-1.773-0.89-3.563-1.751-5.371-2.581c-14.48-6.648-25.809-18.919-29.865-34.328c-0.437-1.659-0.792-3.245-1.082-4.725 c-1.135-5.801-1.559-11.743-0.836-17.609c3.08-25.015,21.564-36.845,21.564-36.845H256h-57.092c0,0,18.484,11.83,21.564,36.845 c0.723,5.866,0.299,11.809-0.836,17.609c-0.29,1.479-0.646,3.065-1.082,4.725c-4.058,15.409-15.385,27.68-29.865,34.328 c-1.808,0.83-3.598,1.691-5.371,2.581c-0.048,0.01-0.091,0.026-0.139,0.036l0.087-0.01c-56.602,28.424-94.309,88.938-89.133,157.693 c6.142,81.592,73.709,146.511,155.471,149.65c92.571,3.555,168.735-70.437,168.735-162.217 C418.34,263.187,381.859,208.238,328.733,181.56z" fill="url(#SVGID_1___loot-potion)"/>
        <path d="M312.854,59.05H196.377c-7.289,0-13.197,5.908-13.197,13.198l0,0c0,7.289,5.908,13.197,13.197,13.197 h116.477c7.289,0,13.198-5.908,13.198-13.197l0,0C326.052,64.958,320.143,59.05,312.854,59.05z" fill="#FFCCE0"/>
        <path d="M198.908,85.445c0,0,7.582,4.887,13.846,14.958h86.492c6.264-10.071,13.846-14.958,13.846-14.958H256 H198.908z" fill="#DB8DA5"/>
        <path d="M384.15,333.04c0.521-9.888-0.088-19.542-1.703-28.852c-3.918-22.584-24.301-38.612-47.162-36.966 c-35.465,2.555-72.27,23.617-83.893,30.801c-2.79,1.724-5.632,3.374-8.594,4.781c-39.337,18.691-69.826,14.979-90.558,6.503 c-11.732-4.796-24.558,3.87-24.573,16.546v0.299c0,73.722,62.162,132.925,136.932,128.052 C328.913,450.013,380.758,397.401,384.15,333.04z" fill="#CC5697"/>
        <path d="M186.041,206.189c0,0-35.918,7.771-43.749,52.925c-0.852,4.907,2.501,9.619,7.404,10.492 c7.724,1.376,20.066,1.479,34.174-6.28c6.333-3.482,11.892-8.19,16.729-13.561c5.931-6.581,13.164-16.51,14.123-26.594 c0.947-9.973-7.45-18.322-17.468-18.325C193.898,204.846,190.046,205.181,186.041,206.189z" fill="#FFFFFF"/>
        <circle cx="182.974" cy="369.12" fill="#A03774" r="15.998"/>
        <circle cx="244.055" cy="339.308" fill="#A03774" r="4.908"/>
        <circle cx="282.23" cy="396.389" fill="#A03774" r="27.269"/>
        <circle cx="332.041" cy="319.311" fill="#A03774" r="12.543"/>
    </symbol>
    <symbol id="loot-special" enable-background="new 0 0 512 512" height="512px" viewBox="0 0 512 512" width="512px" xml:space="preserve" xmlns="http://www.w3.org/2000/svg">
        <path d="M263.309,454.193c0,0,0.673,0.049,1.843,0.076c12.185,0.285,24.129-3.425,34.153-10.357l16.264-11.245 c6.631-4.585,16.039-2.358,19.379,4.979c0.049,0.106,0.097,0.214,0.145,0.323l-37.222,24.52l-23.216,3.564 C274.654,466.053,264.088,460.25,263.309,454.193z" fill="#A06260"/>
        <path d="M307.154,475.534c0,0,22.242-15.151,39.766-24.509c9.105-4.863,5.165-18.961-5.126-18.138 c-0.152,0.013-0.307,0.026-0.462,0.042c-1.301,0.129-2.541,0.621-3.66,1.296l-31.819,19.183c-3.87,2.332-7.971,4.235-12.272,5.619 c-6.594,2.121-16.397,4.363-26.627,3.461C266.953,462.488,291.181,474.735,307.154,475.534z" fill="#BA8280"/>
        <linearGradient gradientUnits="userSpaceOnUse" id="SVGID_1___loot-special" x1="236.272" x2="236.272" y1="378.9619" y2="-21.0057">
            <stop offset="0.0154" style="stop-color:#E54254"/>
            <stop offset="1" style="stop-color:#FF94A6"/>
        </linearGradient>
        <path d="M234.971,403.179c-4.015,0.598-8.112-0.687-10.979-3.562c-8.273-8.297-28.464-25.216-57.628-27.833 c0,0-13.959-0.416-19.443-7.687c0,0-31.938-44.375-19.604-92.033c0.662-2.557,3.857-3.46,5.735-1.604 c2.007,1.982,4.597,4.222,7.339,5.753c3.01,1.681,6.687,1.531,9.573-0.354c3.594-2.348,9.323-6.406,14.302-11.344 c7.528-7.467,10.891-18.475,7.664-28.575c-2.004-6.273-6.501-12.556-16.106-15.33c-2.145-0.619-3.374-2.786-2.687-4.91 c2.493-7.704,8.679-24.69,17.678-35.161c1.406-1.636,3.396-2.639,5.553-2.718c9.439-0.342,38.737-3.31,55.638-26.404 c2.403-3.284,4.325-6.939,5.36-10.875c2.128-8.099,1.968-20.999-18.156-25.506c0,0-24.014-5.447-11.965-31.907 c0,0,6.066-15.166,20.844-24.336c2.317-1.438,5.205,0.835,4.316,3.413c-1.918,5.567-4.014,13.471-3.305,19.949 c0.572,5.227,4.496,9.46,9.629,10.598c10.313,2.286,39.395,11.786,38.67,46.165c-0.064,3.038-2.067,5.662-4.898,6.764 c-7.93,3.087-22.573,13.607-12.852,48.38c0,0,6.104,20.264,23.438,20.996c11.066,0.467,12.518-8.555,12.566-12.992 c0.014-1.226,1.127-2.127,2.314-1.82c10.018,2.593,47.709,14.878,50.068,53.387c0.221,3.597-1.055,7.163-3.471,9.837 c-8.768,9.706-28.27,36.122-7.389,60.622c3.018,3.54,3.631,8.533,1.811,12.813c-6.797,15.989-27.508,51.355-80.682,62.798 L234.971,403.179z" fill="url(#SVGID_1___loot-special)"/>
        <path d="M303.576,176.95c0,5.395-3.225,9.769-8.619,9.769c-5.396,0-9.77-4.374-9.77-9.769s4.373-9.769,9.77-9.769 C300.352,167.181,303.576,171.555,303.576,176.95z" fill="#FF697B"/>
        <path d="M257.586,12.486c-1.79-1.826-4.662-2.179-6.729-0.673c-2.655,1.935-5.849,6.328-6.288,16.295 c0,0,0.276,4.233-0.702,8.298c-0.583,2.418,1.625,4.542,4.007,3.823c0.347-0.105,0.702-0.22,1.062-0.346 c8.813-3.069,14.109-12.57,11.771-21.605C260.16,16.167,259.195,14.129,257.586,12.486z" fill="#FF94A6"/>
        <path d="M228.887,218.66c-3.488,4.791-7.526,11.104-9.616,17.063c-0.644,1.835-0.331,3.872,0.834,5.43 c3.505,4.684,8.993,16.998-13.984,31.788c0,0-21.642,11.159-21.98,33.816c0,0,0.37,41.326,39.769,51.081 c6.043,1.497,12.307,1.846,18.524,1.522c5.823-0.304,13.667-1.106,20.454-3.163c2.926-0.887,5.437-2.744,7.326-5.148 c3.302-4.2,9.441-11.396,16.186-16.224c3.195-2.288,5.554-5.521,6.473-9.343c2.129-8.861,3.688-25.211-7.575-40.405 c-1.005-1.356-3.08-1.349-3.95,0.098c-2.135,3.543-6.619,8.734-14.24,7.767c-7.121-0.904-13.057-8.163-13.099-15.341 c-0.028-4.796,1.679-9.584,8.299-10.383c2.085-0.251,3.265-2.554,2.315-4.427c-2.395-4.716-7.922-12.129-20.094-16.619 c-6.014-2.219-10.78-7.121-12.016-13.41c-0.655-3.332-0.791-7.471,0.101-12.535C232.995,218.058,230.183,216.88,228.887,218.66z" fill="#FBB04D"/>
        <path d="M225.334,195.891c0,3.575-4.305,7.739-7.88,7.739s-6.473-2.898-6.473-6.473s5.149-9.005,8.724-9.005 S225.334,192.316,225.334,195.891z" fill="#FBB04D"/>
        <path d="M342.029,432.871c-0.152,0.01-0.383,0.029-0.57,0.047c-1.233,0.115-2.554,0.565-3.673,1.24l-31.752,19.25 c-3.87,2.332-7.971,4.235-12.272,5.619c-6.066,1.952-14.859,3.975-24.191,3.587l5.262,3.436c0.002,0.001,0.005,0.003,0.008,0.004 c0.044,0.011,14.446,3.616,34.828-8.184l29.317-18.842c3.038-1.952,6.478-3.285,10.075-3.604 C349.061,435.424,346.736,432.598,342.029,432.871z" fill="#DDAEA9"/>
        <path d="M129.095,449.737c0,10.48,0,30.083,0,40.638c0,4.355,3.07,8.094,7.349,8.902 c12.418,2.346,32.791,4.867,64.936-8.834c0,0,29.715-14.66,67.714-3.688c0,0,25.5,7.594,47.98,8.898 c5.258,0.307,10.402-1.454,14.363-4.927c9.025-7.913,28.203-23.331,49.91-32.364c8.446-3.517,8.148-15.705-0.467-18.785 c-0.704-0.252-1.436-0.476-2.195-0.667c-1.852-0.466-3.785-0.419-5.601,0.169c-6.38,2.07-24.247,8.383-39.004,18.459 c-9.546,6.518-21.147,9.26-32.546,7.342c-14.113-2.376-32.765-7.367-47.639-17.845c-8.29-5.839-11.988-16.719-7.716-25.915 c0.81-1.741,1.865-3.37,3.237-4.742c0,0,27.164-25.566,42.453-40.354c3.648-3.527,1.955-9.654-2.973-10.868 c-6.752-1.663-15.916-2.034-24.285,3.944l-26.939,23.571c-2.742,2.399-6.267,3.674-9.909,3.555 c-12.952-0.425-46.76,2.56-70.525,41.408c-1.706,2.788-4.627,4.587-7.865,5.034c-3.532,0.486-8.423,0.933-13.623,0.712 C132.125,443.227,129.095,446.107,129.095,449.737z" fill="#FFD3CD"/>
        <path d="M265.924,459.203c6.949-0.168,21.904-1.51,32.102-9.486l18.965-12.447c3.355-2.202,7.023-3.949,10.935-4.848 c0.601-0.138,1.291-0.289,1.915-0.389c-4.255-2.427-9.891-2.395-14.271,0.634l-16.271,11.251 c-10.022,6.931-21.966,10.637-34.147,10.352c-1.17-0.027-1.842-0.076-1.842-0.076C263.531,455.93,264.57,457.64,265.924,459.203z" fill="#BA8280"/>
        <path d="M269.094,486.755c0,0,25.5,7.595,47.98,8.899c5.258,0.307,10.402-1.454,14.363-4.927 c9.025-7.913,28.203-23.331,49.909-32.364c8.447-3.516,8.149-15.705-0.466-18.785c-0.704-0.252-1.436-0.476-2.195-0.667 c-1.852-0.466-3.785-0.419-5.601,0.169c-6.38,2.07-24.247,8.383-39.004,18.459c-9.546,6.518-21.147,9.26-32.546,7.342 c-14.113-2.376-32.765-7.367-47.639-17.845c-8.29-5.839-11.988-16.719-7.716-25.915c0.81-1.741,1.865-3.37,3.237-4.742 c0,0,27.164-25.566,42.453-40.354c1.977-1.91,2.342-4.568,1.518-6.812c-2.583-0.196-5.074-0.119-7.379,0.157 c-7.377,0.883-14.232,4.243-19.686,9.289l-28.403,26.279c-2.7,2.498-6.156,4.058-9.82,4.385 c-35.401,3.161-53.286,25.592-61.157,39.786c-3.987,7.19-11.476,11.707-19.698,11.707h-18.151c0,10.094,0,22.087,0,29.558 c0,4.355,3.07,8.094,7.349,8.901c12.418,2.347,32.791,4.868,64.936-8.833C201.38,490.443,231.095,475.783,269.094,486.755z" fill="#DDAEA9"/>
        <path d="M385.938,443.563c-1.107-1.745-2.792-3.175-5.057-3.984c-0.704-0.252-1.436-0.476-2.195-0.667 c-1.852-0.466-3.785-0.419-5.601,0.169c-6.38,2.07-24.247,8.383-39.004,18.459c-9.546,6.518-21.147,9.26-32.546,7.342 c-12.254-2.063-27.924-6.109-41.578-13.995c16.08,14.538,38.57,20.753,51.041,23.2c5.57,1.092,11.32-0.264,15.936-3.567 C354.172,451.025,377.25,445.177,385.938,443.563z" fill="#FFD3CD"/>
        <path d="M252.629,339.908c-4.7,4.491-10.457,5.172-17.874,4.723c-7.732-0.468-18.152-5.784-20.933-17.254 c0,0-1.659-7.229,0.735-14.433c1.748-5.259,6.051-9.181,11.145-11.364c2.759-1.182,6.597-3.727,7.518-8.904 c0.313-1.757,2.379-2.617,3.915-1.709c2.826,1.672,6.501,4.478,8.259,8.472c0,0,2.102,6.286,6.785,10.137 c4.336,3.564,7.287,8.641,7.096,14.25C259.094,329.086,257.574,335.18,252.629,339.908z" fill="#FFFFFF"/>
        <circle cx="220.354" cy="287.217" fill="#FFFFFF" r="3.414"/>
        <circle cx="280.172" cy="258.792" fill="#FBB04D" r="3.85"/>
    </symbol>
    <symbol id="loot-weapon" enable-background="new 0 0 512 512" height="512px" viewBox="0 0 512 512" width="512px" xml:space="preserve" xmlns="http://www.w3.org/2000/svg">
        <polygon fill="#B75798" points="165.316,346.685 151.996,333.365 64.291,421.07 77.61,434.391 90.929,447.71 178.635,360.004"/>
        <path d="M98.834,442.717l-6.384-23.168l-23.167-6.383c-2.672-0.736-5.533,0.02-7.493,1.979l-13.201,13.202 c-2.592,2.591-2.592,6.794,0,9.386l12.839,12.84l12.839,12.839c2.592,2.592,6.794,2.592,9.386,0l13.201-13.201 C98.815,448.25,99.57,445.389,98.834,442.717z" fill="#FFD9BE"/>
        <polygon fill="#7F2467" points="151.996,333.365 137.104,348.258 163.743,374.896 178.635,360.004 165.316,346.685"/>
        <rect fill="#7F2467" height="9.767" transform="matrix(-0.7071 -0.7071 0.7071 -0.7071 -47.9208 743.9301)" width="37.673" x="111.274" y="377.006"/>
        <rect fill="#7F2467" height="9.767" transform="matrix(-0.7071 -0.7071 0.7071 -0.7071 -105.2994 767.6941)" width="37.673" x="87.509" y="400.772"/>
        <path d="M53.969,443.112l7.459,7.46l12.839,12.839c2.592,2.592,6.794,2.592,9.386,0l13.201-13.201 c1.96-1.96,2.715-4.821,1.979-7.493l-6.384-23.168l-16.447,16.448C76.003,435.997,67.381,445.73,53.969,443.112z" fill="#FFBF76"/>
        <linearGradient gradientTransform="matrix(0.7071 0.7071 -0.7071 0.7071 -1549.0148 -556.7651)" gradientUnits="userSpaceOnUse" id="SVGID_1___loot-weapon" x1="1851.0674" x2="1851.0674" y1="-972.1616" y2="-502.2602">
            <stop offset="0" style="stop-color:#FFFFFF"/>
            <stop offset="1" style="stop-color:#C7DAFF"/>
        </linearGradient>
        <path d="M457.373,46.666l-26.05,1.916c-5.269,0.388-10.222,2.655-13.957,6.391l-266.519,266.52l19.831,19.83 l19.83,19.83l266.52-266.519c3.734-3.735,6.004-8.688,6.391-13.957l1.916-26.05C465.668,50.099,461.9,46.333,457.373,46.666z" fill="url(#SVGID_1___loot-weapon)"/>
        <path d="M223.397,248.941l-72.55,72.551l19.831,19.83l113.163-113.163 C259.305,241.872,237.547,247.05,223.397,248.941z" fill="#C7DAFF"/>
        <path d="M375.885,137.868c0.574-1.126,1.147-2.282,1.714-3.467l-93.758,93.758 c15.681-8.764,32.487-20.991,49.184-38.139l16.856-16.856C360.272,162.772,369.199,150.957,375.885,137.868z" fill="#C7DAFF"/>
        <path d="M457.373,46.666l-26.05,1.916c-5.269,0.388-10.222,2.655-13.957,6.391l-27.133,27.133 c-0.014,20.159-5.896,38.207-12.635,52.295l85.578-85.578C461.711,47.357,459.637,46.499,457.373,46.666z" fill="#C7DAFF"/>
        <linearGradient gradientTransform="matrix(0.7071 0.7071 -0.7071 0.7071 -1549.0148 -556.7651)" gradientUnits="userSpaceOnUse" id="SVGID_2___loot-weapon" x1="1865.0898" x2="1865.0898" y1="-603.3032" y2="-970.095">
            <stop offset="0" style="stop-color:#819FEA"/>
            <stop offset="1" style="stop-color:#A7C1FC"/>
        </linearGradient>
        <path d="M457.027,94.634c2.416-2.416,4.139-5.37,5.215-8.56c-4.43,0.065-10.313,0.653-17.621,2.421 c-18.714,4.527-35.653,14.538-49.268,28.153L170.678,341.322l19.83,19.83L457.027,94.634z" fill="url(#SVGID_2___loot-weapon)"/>
        <path d="M251.494,419.528c1.663-4.069,4.682-13.362,3.523-25.045c-0.302-3.04-3.5-4.808-6.221-3.417 c-5.36,2.74-13.884,5.289-20.431-1.258l-39.741-39.196l-2.318-24.918l-24.918-2.317l-39.196-39.742 c-6.547-6.547-3.999-15.07-1.258-20.43c1.391-2.721-0.376-5.92-3.417-6.222c-11.683-1.159-20.976,1.86-25.045,3.522 c-1.418,0.58-2.614,1.614-3.342,2.963c-6.205,11.494-6.861,23.543-6.396,31.338c0.178,2.974,3.711,4.448,5.974,2.51 c7.566-6.485,15.789-2.867,15.789-2.867l56.527,56.527l56.527,56.527c0,0,3.618,8.223-2.867,15.789 c-1.938,2.262-0.464,5.795,2.51,5.973c7.794,0.467,19.844-0.19,31.337-6.395C249.88,422.143,250.914,420.946,251.494,419.528z" fill="#FFD9BE"/>
        <path d="M217.551,407.504c0,0,3.618,8.223-2.867,15.789c-1.938,2.262-0.464,5.795,2.51,5.973 c7.794,0.467,19.844-0.19,31.337-6.395c1.349-0.729,2.383-1.925,2.962-3.343c1.663-4.069,4.682-13.362,3.523-25.045 c-0.302-3.04-3.5-4.808-6.221-3.417c-5.36,2.74-13.884,5.289-20.431-1.258l-39.741-39.196l-2.318-24.918l-25.283,25.282 L217.551,407.504z" fill="#FFBF76"/>
        <polygon fill="#FFFCFF" points="127.111,317.064 141.193,331.146 155.243,317.096 141.245,302.931"/>
        <polygon fill="#FFFCFF" points="109.495,299.447 117.654,307.607 131.836,293.425 123.733,285.209"/>
    </symbol>
</svg>