<?xml version="1.0" encoding="utf-8"?>
<svg width="136" height="136" viewBox="0 0 136 136" fill="none" xmlns="http://www.w3.org/2000/svg">
  <g>
    <rect width="136" height="136" />
    <path d="M83.6026 3.76588C83.6026 1.2553 82.3473 0 79.8367 0C79.8367 0 41.4247 0 41.4247 0C38.9141 0 37.6588 1.2553 37.6588 3.76588C37.6588 3.76588 37.6588 37.6588 37.6588 37.6588C37.6588 37.6588 3.76588 37.6588 3.76588 37.6588C1.25529 37.6588 0 38.9141 0 41.4247C0 41.4247 0 79.8367 0 79.8367C0 82.3473 1.25529 83.6026 3.76588 83.6026C3.76588 83.6026 37.6588 83.6026 37.6588 83.6026C37.6588 83.6026 37.6588 116.705 37.6588 116.705C37.6588 119.215 38.9141 120.471 41.4247 120.471C41.4247 120.471 79.8367 120.471 79.8367 120.471C82.3473 120.471 83.6026 119.215 83.6026 116.705C83.6026 116.705 83.6026 83.6026 83.6026 83.6026C83.6026 83.6026 116.705 83.6026 116.705 83.6026C119.215 83.6026 120.471 82.3473 120.471 79.8367C120.471 79.8367 120.471 41.4247 120.471 41.4247C120.471 38.9141 119.215 37.6588 116.705 37.6588C116.705 37.6588 83.6026 37.6588 83.6026 37.6588C83.6026 37.6588 83.6026 3.76588 83.6026 3.76588Z" fill="#383838" transform="translate(3.765 3.765)" />
    <g transform="translate(15.062 15.062)">
      <g>
        <path d="M97.9191 49.7128C97.9191 49.537 97.8438 49.3738 97.6931 49.2232C97.6931 49.2232 93.8893 45.4194 93.8893 45.4194C93.6634 45.1934 93.3997 45.1432 93.0984 45.2687C92.7971 45.3943 92.6465 45.6202 92.6465 45.9466C92.6465 45.9466 92.6465 53.5165 92.6465 53.5165C92.6465 53.8429 92.7971 54.0689 93.0984 54.1944C93.1989 54.2195 93.2993 54.2321 93.3997 54.2321C93.5755 54.2572 93.7387 54.1944 93.8893 54.0438C93.8893 54.0438 93.8893 54.0061 93.8893 54.0061C93.8893 54.0061 97.6931 50.24 97.6931 50.24C97.8438 50.0894 97.9191 49.9136 97.9191 49.7128C97.9191 49.7128 97.9191 49.7128 97.9191 49.7128ZM54.0061 93.8893C54.2321 93.6633 54.2823 93.3997 54.1568 93.0984C54.0312 92.7971 53.8053 92.6465 53.4789 92.6465C53.4789 92.6465 45.909 92.6465 45.909 92.6465C45.5826 92.6465 45.3566 92.7971 45.2311 93.0984C45.206 93.1989 45.1934 93.2993 45.1934 93.3997C45.1683 93.5755 45.2311 93.7387 45.3817 93.8893C45.3817 93.8893 45.4194 93.8893 45.4194 93.8893C45.4194 93.8893 49.1855 97.6931 49.1855 97.6931C49.3361 97.8437 49.5119 97.9191 49.7127 97.9191C49.8885 97.9191 50.0517 97.8437 50.2023 97.6931C50.2023 97.6931 54.0061 93.8893 54.0061 93.8893C54.0061 93.8893 54.0061 93.8893 54.0061 93.8893ZM0.225958 49.2232C0.075327 49.3738 0 49.537 0 49.7128C0 49.9136 0.075327 50.0894 0.225958 50.24C0.225958 50.24 4.02975 54.0061 4.02975 54.0061C4.02975 54.0061 4.02975 54.0438 4.02975 54.0438C4.18038 54.1944 4.34359 54.2572 4.51934 54.2321C4.61977 54.2321 4.7202 54.2195 4.82063 54.1944C5.12191 54.0689 5.27256 53.8429 5.27256 53.5165C5.27256 53.5165 5.27256 45.9466 5.27256 45.9466C5.27256 45.6202 5.12191 45.3943 4.82063 45.2687C4.51934 45.1432 4.25571 45.1934 4.02975 45.4194C4.02975 45.4194 0.225958 49.2232 0.225958 49.2232C0.225958 49.2232 0.225958 49.2232 0.225958 49.2232ZM50.2023 0.225969C50.0517 0.075327 49.8885 0 49.7127 0C49.5119 0 49.3361 0.075327 49.1855 0.225969C49.1855 0.225969 45.4194 4.02975 45.4194 4.02975C45.4194 4.02975 45.3817 4.02975 45.3817 4.02975C45.2311 4.18039 45.1683 4.34359 45.1934 4.51934C45.1934 4.61977 45.206 4.7202 45.2311 4.82063C45.3566 5.12192 45.5826 5.27256 45.909 5.27256C45.909 5.27256 53.4789 5.27256 53.4789 5.27256C53.8053 5.27256 54.0312 5.12192 54.1568 4.82063C54.2823 4.51934 54.2321 4.25572 54.0061 4.02975C54.0061 4.02975 50.2023 0.225969 50.2023 0.225969Z" fill="#666666" />
        <path d="M6.02579 2.63628C5.92536 1.95837 5.63663 1.36835 5.15959 0.866203C4.557 0.288734 3.84145 0 3.0129 0C2.20945 0 1.50645 0.288734 0.903877 0.866203C0.401737 1.36835 0.11298 1.95837 0.0376511 2.63628C0.0125504 2.76183 0 2.88736 0 3.0129C0 3.81633 0.301285 4.51934 0.903877 5.12193C1.50645 5.72451 2.20945 6.02579 3.0129 6.02579C3.84145 6.02579 4.557 5.72451 5.15959 5.12193C5.73706 4.51934 6.02579 3.81633 6.02579 3.0129C6.02579 2.88736 6.02579 2.76183 6.02579 2.63628Z" fill="#666666" transform="translate(45.947 45.947)" />
      </g>
    </g>
    <rect width="49" height="39" transform="translate(44 4)" />
    <rect width="40" height="51" transform="translate(4 43)" />
    <rect width="49" height="38" transform="translate(44 94)" />
    <rect width="39" height="51" transform="translate(93 43)" />
  </g>
</svg>