<?xml version="1.0" encoding="utf-8"?>
<svg width="6144" height="1024.489" viewBox="0 0 6144 1024.489" fill="none" xmlns="http://www.w3.org/2000/svg">
  <g>
    <g>
      <path d="M1024 0C1024 0 0 0 0 0L0 1024L1024 1024C1024 1024 1024 0 1024 0Z" fill="#D5EDF7" />
      <path d="M865.9 112.8C856.867 112.8 849.15 115.767 842.75 121.7C841.817 122.6 840.933 123.533 840.1 124.5C824.267 110.7 805.333 103.8 783.3 103.8C778.833 103.8 774.483 104.1 770.25 104.7C769.917 104.367 769.583 104.05 769.25 103.75C762.917 97.7833 755.217 94.8 746.15 94.8C741.017 94.8 736.283 95.8 731.95 97.8C731.95 97.8 731.9 97.8 731.9 97.8C731.9 97.6333 731.917 97.4667 731.95 97.3C732.017 96.6 732.05 95.9167 732.05 95.25C732.05 94.95 732.05 94.7 732.05 94.5C732.05 94.1667 732.05 93.8167 732.05 93.45C731.783 85.4833 728.583 78.65 722.45 72.95C716.083 67.0167 708.383 64.05 699.35 64.05C697.35 64.05 695.45 64.2 693.65 64.5C692.15 59.7667 689.383 55.5333 685.35 51.8C678.983 45.8667 671.283 42.9 662.25 42.9C653.217 42.9 645.517 45.8667 639.15 51.8C634.783 55.8667 631.9 60.5167 630.5 65.75C616.367 68.45 603.75 74.4833 592.65 83.85C586.983 79.7167 580.367 77.65 572.8 77.65C563.767 77.65 556.05 80.6167 549.65 86.55C545.017 90.8833 542.067 95.9 540.8 101.6C535.167 100.5 529.3 99.95 523.2 99.95C521.267 99.95 519.333 100.017 517.4 100.15C516 95.0167 513.15 90.4333 508.85 86.4C502.517 80.4667 494.817 77.5 485.75 77.5C476.717 77.5 469 80.4667 462.6 86.4C462.367 86.6667 462.167 86.9 462 87.1C458.467 81.5667 454.1 76.3666 448.9 71.5C432.6 56.3333 412.933 48.7333 389.9 48.7C388.333 45.1334 385.983 41.9 382.85 39C376.483 33.0667 368.767 30.1 359.7 30.1C356.633 30.1 353.767 30.4333 351.1 31.1C350.5 23.7667 347.317 17.4333 341.55 12.1C335.183 6.16669 327.483 3.20001 318.45 3.20001C311.983 3.20001 306.25 4.70001 301.25 7.70001C290.117 2.56665 277.85 0 264.45 0C241.317 0 221.6 7.59998 205.3 22.8C197.733 29.8334 191.933 37.5334 187.9 45.9C185.633 45.4667 183.25 45.25 180.75 45.25C171.783 45.25 164.083 48.2 157.65 54.1C151.65 59.7 148.5 66.45 148.2 74.35C148.167 74.75 148.15 75.1833 148.15 75.65C148.15 76.5167 148.183 77.3834 148.25 78.25C148.55 81.85 149.483 85.25 151.05 88.45C149.95 90.75 149.15 93.1833 148.65 95.75C140.283 99.45 132.55 104.617 125.45 111.25C122.45 114.05 119.717 116.983 117.25 120.05C112.15 117.017 106.35 115.5 99.85 115.5C90.8167 115.5 83.1333 118.467 76.8 124.4C72.0333 128.8 69.05 133.883 67.85 139.65C67.3167 139.65 66.7833 139.65 66.25 139.65C53.25 139.65 41.3333 142.083 30.5 146.95C25.9 144.65 20.8333 143.5 15.3 143.5C9.66666 143.5 4.56667 144.667 0 147C0 147 0 398.85 0 398.85L1024 398.85C1024 398.85 1024 150.25 1024 150.25C1023.73 139.75 1019.87 130.767 1012.4 123.3C1005.73 116.633 997.9 112.833 988.9 111.9C987.467 109.833 985.817 107.867 983.95 106C976.183 98.2333 966.85 94.35 955.95 94.35C951.283 94.35 946.917 95.0667 942.85 96.5C937.383 98.3666 932.433 101.533 928 106C921.8 112.167 918.083 119.383 916.85 127.65C909.75 128.517 903.033 130.217 896.7 132.75C895.133 128.65 892.567 124.967 889 121.7C882.667 115.767 874.967 112.8 865.9 112.8Z" fill="#E6F4FA" transform="translate(0 396)" />
      <path d="M1023.95 17.1885C1000.68 25.4552 977.833 34.7218 955.4 44.9885C916.1 62.9885 875.917 64.4052 834.85 49.2385C796.783 35.1385 758.317 22.2719 719.45 10.6385C679.55 -1.26147 639.133 -3.17822 598.2 4.88849C557.333 12.9552 518.283 25.8385 481.05 43.5385C443.417 61.3052 403.583 70.3385 361.55 70.6385C319.583 71.0051 278.967 64.0552 239.7 49.7885C201.633 35.8552 162.817 24.2218 123.25 14.8885C81.8833 5.2218 40.8 5.98853 0 17.1885C0 17.1885 0 406.489 0 406.489L1023.95 406.489C1023.95 406.489 1023.95 17.1885 1023.95 17.1885Z" fill="#B6D9E7" transform="translate(0 618)" />
    </g>
    <g transform="translate(1024 0)">
      <path d="M1024 0C1024 0 0 0 0 0L0 1024L1024 1024C1024 1024 1024 0 1024 0Z" fill="#D5EDF7" />
      <path d="M1024 150.25C1023.73 139.75 1019.87 130.767 1012.4 123.3C1005.73 116.633 997.9 112.833 988.9 111.9C987.467 109.833 985.817 107.867 983.95 106C976.183 98.2333 966.85 94.35 955.95 94.35C951.283 94.35 946.917 95.0667 942.85 96.5C937.383 98.3666 932.433 101.533 928 106C921.8 112.167 918.083 119.383 916.85 127.65C909.75 128.517 903.033 130.217 896.7 132.75C895.133 128.65 892.567 124.967 889 121.7C882.667 115.767 874.967 112.8 865.9 112.8C856.867 112.8 849.15 115.767 842.75 121.7C841.817 122.6 840.933 123.533 840.1 124.5C824.267 110.7 805.333 103.8 783.3 103.8C778.833 103.8 774.483 104.1 770.25 104.7C769.917 104.367 769.583 104.05 769.25 103.75C762.917 97.7833 755.217 94.8 746.15 94.8C741.017 94.8 736.283 95.8 731.95 97.8C731.95 97.8 731.9 97.8 731.9 97.8C731.9 97.6333 731.917 97.4667 731.95 97.3C732.017 96.6 732.05 95.9167 732.05 95.25C732.05 94.95 732.05 94.7 732.05 94.5C732.05 94.1667 732.05 93.8167 732.05 93.45C731.783 85.4833 728.583 78.65 722.45 72.95C716.083 67.0167 708.383 64.05 699.35 64.05C697.35 64.05 695.45 64.2 693.65 64.5C692.15 59.7667 689.383 55.5333 685.35 51.8C678.983 45.8667 671.283 42.9 662.25 42.9C653.217 42.9 645.517 45.8667 639.15 51.8C634.783 55.8667 631.9 60.5167 630.5 65.75C616.367 68.45 603.75 74.4833 592.65 83.85C586.983 79.7167 580.367 77.65 572.8 77.65C563.767 77.65 556.05 80.6167 549.65 86.55C545.017 90.8833 542.067 95.9 540.8 101.6C535.167 100.5 529.3 99.95 523.2 99.95C521.267 99.95 519.333 100.017 517.4 100.15C516 95.0167 513.15 90.4333 508.85 86.4C502.517 80.4667 494.817 77.5 485.75 77.5C476.717 77.5 469 80.4667 462.6 86.4C462.367 86.6667 462.167 86.9 462 87.1C458.467 81.5667 454.1 76.3666 448.9 71.5C432.6 56.3333 412.933 48.7333 389.9 48.7C388.333 45.1334 385.983 41.9 382.85 39C376.483 33.0667 368.767 30.1 359.7 30.1C356.633 30.1 353.767 30.4333 351.1 31.1C350.5 23.7667 347.317 17.4333 341.55 12.1C335.183 6.16669 327.483 3.20001 318.45 3.20001C311.983 3.20001 306.25 4.70001 301.25 7.70001C290.117 2.56665 277.85 0 264.45 0C241.317 0 221.6 7.59998 205.3 22.8C197.733 29.8334 191.933 37.5334 187.9 45.9C185.633 45.4667 183.25 45.25 180.75 45.25C171.783 45.25 164.083 48.2 157.65 54.1C151.65 59.7 148.5 66.45 148.2 74.35C148.167 74.75 148.15 75.1833 148.15 75.65C148.15 76.5167 148.183 77.3834 148.25 78.25C148.55 81.85 149.483 85.25 151.05 88.45C149.95 90.75 149.15 93.1833 148.65 95.75C140.283 99.45 132.55 104.617 125.45 111.25C122.45 114.05 119.717 116.983 117.25 120.05C112.15 117.017 106.35 115.5 99.85 115.5C90.8167 115.5 83.1334 118.467 76.8 124.4C72.0333 128.8 69.05 133.883 67.85 139.65C67.3167 139.65 66.7833 139.65 66.25 139.65C53.25 139.65 41.3333 142.083 30.5 146.95C25.9 144.65 20.8333 143.5 15.3 143.5C9.66663 143.5 4.56665 144.667 0 147C0 147 0 398.85 0 398.85L1024 398.85C1024 398.85 1024 150.25 1024 150.25Z" fill="#E6F4FA" transform="translate(0 276)" />
      <path d="M1024 287.125C1024 287.125 1024 117.575 1024 117.575L981.2 159.025C981.2 159.025 836.6 18.975 836.6 18.975C827.333 11.2416 818.933 11.2416 811.4 18.975C811.4 18.975 682.5 143.775 682.5 143.775C682.5 143.775 638.5 101.225 638.5 101.225C631.333 95.125 625.017 95.125 619.55 101.225C619.55 101.225 571.8 147.425 571.8 147.425C571.8 147.425 505.8 83.525 505.8 83.525C499.433 77.8583 493.517 77.8583 488.05 83.525C488.05 83.525 438.4 131.625 438.4 131.625C438.4 131.625 308.2 5.52502 308.2 5.52502C300.8 -1.84167 293.35 -1.84167 285.85 5.52502C285.85 5.52502 173.55 117.575 173.55 117.575C173.55 117.575 123.25 68.875 123.25 68.875C117.383 62.975 111.517 62.975 105.65 68.875C105.65 68.875 27.7 144.375 27.7 144.375L0 117.575L0 287.125C0 287.125 1024 287.125 1024 287.125Z" fill="#D5EDF7" transform="translate(0 435)" />
      <path d="M481.05 43.5385C443.417 61.3052 403.583 70.3385 361.55 70.6385C319.583 71.0051 278.967 64.0552 239.7 49.7885C201.633 35.8552 162.817 24.2218 123.25 14.8885C81.8834 5.2218 40.8 5.98853 0 17.1885C0 17.1885 0 406.489 0 406.489L1023.95 406.489C1023.95 406.489 1023.95 17.1885 1023.95 17.1885C1000.68 25.4552 977.833 34.7218 955.4 44.9885C916.1 62.9885 875.917 64.4052 834.85 49.2385C796.783 35.1385 758.317 22.2719 719.45 10.6385C679.55 -1.26147 639.133 -3.17822 598.2 4.88849C557.333 12.9552 518.283 25.8385 481.05 43.5385Z" fill="#B6D9E7" transform="translate(0 618)" />
    </g>
    <g transform="translate(2048 0)">
      <path d="M1024 1024C1024 1024 1024 0 1024 0L0 0L0 1024C0 1024 1024 1024 1024 1024Z" fill="#D5EDF7" />
      <path d="M988.9 111.9C987.467 109.833 985.817 107.867 983.95 106C976.183 98.2333 966.85 94.35 955.95 94.35C951.283 94.35 946.917 95.0667 942.85 96.5C937.383 98.3666 932.433 101.533 928 106C921.8 112.167 918.083 119.383 916.85 127.65C909.75 128.517 903.033 130.217 896.7 132.75C895.133 128.65 892.567 124.967 889 121.7C882.667 115.767 874.967 112.8 865.9 112.8C856.867 112.8 849.15 115.767 842.75 121.7C841.817 122.6 840.933 123.533 840.1 124.5C824.267 110.7 805.333 103.8 783.3 103.8C778.833 103.8 774.483 104.1 770.25 104.7C769.917 104.367 769.583 104.05 769.25 103.75C762.917 97.7833 755.217 94.8 746.15 94.8C741.017 94.8 736.283 95.8 731.95 97.8C731.95 97.8 731.9 97.8 731.9 97.8C731.9 97.6333 731.917 97.4667 731.95 97.3C732.017 96.6 732.05 95.9167 732.05 95.25C732.05 94.95 732.05 94.7 732.05 94.5C732.05 94.1667 732.05 93.8167 732.05 93.45C731.783 85.4833 728.583 78.65 722.45 72.95C716.083 67.0167 708.383 64.05 699.35 64.05C697.35 64.05 695.45 64.2 693.65 64.5C692.15 59.7667 689.383 55.5333 685.35 51.8C678.983 45.8667 671.283 42.9 662.25 42.9C653.217 42.9 645.517 45.8667 639.15 51.8C634.783 55.8667 631.9 60.5167 630.5 65.75C616.367 68.45 603.75 74.4833 592.65 83.85C586.983 79.7167 580.367 77.65 572.8 77.65C563.767 77.65 556.05 80.6167 549.65 86.55C545.017 90.8833 542.067 95.9 540.8 101.6C535.167 100.5 529.3 99.95 523.2 99.95C521.267 99.95 519.333 100.017 517.4 100.15C516 95.0167 513.15 90.4333 508.85 86.4C502.517 80.4667 494.817 77.5 485.75 77.5C476.717 77.5 469 80.4667 462.6 86.4C462.367 86.6667 462.167 86.9 462 87.1C458.467 81.5667 454.1 76.3666 448.9 71.5C432.6 56.3333 412.933 48.7333 389.9 48.7C388.333 45.1334 385.983 41.9 382.85 39C376.483 33.0667 368.767 30.1 359.7 30.1C356.633 30.1 353.767 30.4333 351.1 31.1C350.5 23.7667 347.317 17.4333 341.55 12.1C335.183 6.16669 327.483 3.20001 318.45 3.20001C311.983 3.20001 306.25 4.70001 301.25 7.70001C290.117 2.56665 277.85 0 264.45 0C241.317 0 221.6 7.59998 205.3 22.8C197.733 29.8334 191.933 37.5334 187.9 45.9C185.633 45.4667 183.25 45.25 180.75 45.25C171.783 45.25 164.083 48.2 157.65 54.1C151.65 59.7 148.5 66.45 148.2 74.35C148.167 74.75 148.15 75.1833 148.15 75.65C148.15 76.5167 148.183 77.3834 148.25 78.25C148.55 81.85 149.483 85.25 151.05 88.45C149.95 90.75 149.15 93.1833 148.65 95.75C140.283 99.45 132.55 104.617 125.45 111.25C122.45 114.05 119.717 116.983 117.25 120.05C112.15 117.017 106.35 115.5 99.8501 115.5C90.8167 115.5 83.1333 118.467 76.8 124.4C72.0332 128.8 69.05 133.883 67.8501 139.65C67.3167 139.65 66.7834 139.65 66.25 139.65C53.25 139.65 41.3333 142.083 30.5 146.95C25.9 144.65 20.8334 143.5 15.3 143.5C9.66663 143.5 4.56665 144.667 0 147C0 147 0 398.85 0 398.85L1024 398.85C1024 398.85 1024 150.25 1024 150.25C1023.73 139.75 1019.87 130.767 1012.4 123.3C1005.73 116.633 997.9 112.833 988.9 111.9Z" fill="#E6F4FA" transform="translate(0 356)" />
      <path d="M1023.95 17.1885C983.15 5.98853 942.067 5.2218 900.7 14.8885C861.133 24.2218 822.317 35.8552 784.25 49.7885C744.983 64.0552 704.367 71.0051 662.4 70.6385C620.367 70.3385 580.533 61.3052 542.9 43.5385C505.667 25.8385 466.617 12.9552 425.75 4.88849C384.817 -3.17822 344.4 -1.26147 304.5 10.6385C265.633 22.2719 227.167 35.1385 189.1 49.2385C148.033 64.4052 107.85 62.9885 68.55 44.9885C46.1167 34.7218 23.2666 25.4552 0 17.1885C0 17.1885 0 406.489 0 406.489L1023.95 406.489C1023.95 406.489 1023.95 17.1885 1023.95 17.1885Z" fill="#D5EDF7" transform="translate(0 582)" />
      <path d="M834.85 49.2385C796.783 35.1385 758.317 22.2719 719.45 10.6385C679.55 -1.26147 639.133 -3.17822 598.2 4.88849C557.333 12.9552 518.283 25.8385 481.05 43.5385C443.417 61.3052 403.583 70.3385 361.55 70.6385C319.583 71.0051 278.967 64.0552 239.7 49.7885C201.633 35.8552 162.817 24.2218 123.25 14.8885C81.8833 5.2218 40.8 5.98853 0 17.1885C0 17.1885 0 406.489 0 406.489L1023.95 406.489C1023.95 406.489 1023.95 17.1885 1023.95 17.1885C1000.68 25.4552 977.833 34.7218 955.4 44.9885C916.1 62.9885 875.917 64.4052 834.85 49.2385Z" fill="#B6D9E7" transform="translate(0 618)" />
    </g>
    <g transform="translate(3072 0)">
      <path d="M1024 0C1024 0 0 0 0 0L0 1024L1024 1024C1024 1024 1024 0 1024 0Z" fill="#D5EDF7" />
      <path d="M988.9 111.9C987.467 109.833 985.817 107.867 983.95 106C976.183 98.2333 966.85 94.35 955.95 94.35C951.283 94.35 946.917 95.0667 942.85 96.5C937.383 98.3666 932.433 101.533 928 106C921.8 112.167 918.083 119.383 916.85 127.65C909.75 128.517 903.033 130.217 896.7 132.75C895.133 128.65 892.567 124.967 889 121.7C882.667 115.767 874.967 112.8 865.9 112.8C856.867 112.8 849.15 115.767 842.75 121.7C841.817 122.6 840.933 123.533 840.1 124.5C824.267 110.7 805.333 103.8 783.3 103.8C778.833 103.8 774.483 104.1 770.25 104.7C769.917 104.367 769.583 104.05 769.25 103.75C762.917 97.7833 755.217 94.8 746.15 94.8C741.017 94.8 736.283 95.8 731.95 97.8C731.95 97.8 731.9 97.8 731.9 97.8C731.9 97.6333 731.917 97.4667 731.95 97.3C732.017 96.6 732.05 95.9167 732.05 95.25C732.05 94.95 732.05 94.7 732.05 94.5C732.05 94.1667 732.05 93.8167 732.05 93.45C731.783 85.4833 728.583 78.65 722.45 72.95C716.083 67.0167 708.383 64.05 699.35 64.05C697.35 64.05 695.45 64.2 693.65 64.5C692.15 59.7667 689.383 55.5333 685.35 51.8C678.983 45.8667 671.283 42.9 662.25 42.9C653.217 42.9 645.517 45.8667 639.15 51.8C634.783 55.8667 631.9 60.5167 630.5 65.75C616.367 68.45 603.75 74.4833 592.65 83.85C586.983 79.7167 580.367 77.65 572.8 77.65C563.767 77.65 556.05 80.6167 549.65 86.55C545.017 90.8833 542.067 95.9 540.8 101.6C535.167 100.5 529.3 99.95 523.2 99.95C521.267 99.95 519.333 100.017 517.4 100.15C516 95.0167 513.15 90.4333 508.85 86.4C502.517 80.4667 494.817 77.5 485.75 77.5C476.717 77.5 469 80.4667 462.6 86.4C462.367 86.6667 462.167 86.9 462 87.1C458.467 81.5667 454.1 76.3666 448.9 71.5C432.6 56.3333 412.933 48.7333 389.9 48.7C388.333 45.1334 385.983 41.9 382.85 39C376.483 33.0667 368.767 30.1 359.7 30.1C356.633 30.1 353.767 30.4333 351.1 31.1C350.5 23.7667 347.317 17.4333 341.55 12.1C335.183 6.16669 327.483 3.20001 318.45 3.20001C311.983 3.20001 306.25 4.70001 301.25 7.70001C290.117 2.56665 277.85 0 264.45 0C241.317 0 221.6 7.59998 205.3 22.8C197.733 29.8334 191.933 37.5334 187.9 45.9C185.633 45.4667 183.25 45.25 180.75 45.25C171.783 45.25 164.083 48.2 157.65 54.1C151.65 59.7 148.5 66.45 148.2 74.35C148.167 74.75 148.15 75.1833 148.15 75.65C148.15 76.5167 148.183 77.3834 148.25 78.25C148.55 81.85 149.483 85.25 151.05 88.45C149.95 90.75 149.15 93.1833 148.65 95.75C140.283 99.45 132.55 104.617 125.45 111.25C122.45 114.05 119.717 116.983 117.25 120.05C112.15 117.017 106.35 115.5 99.8501 115.5C90.8167 115.5 83.1333 118.467 76.8 124.4C72.0332 128.8 69.05 133.883 67.8501 139.65C67.3167 139.65 66.7834 139.65 66.25 139.65C53.25 139.65 41.3333 142.083 30.5 146.95C25.9001 144.65 20.8335 143.5 15.3 143.5C9.66675 143.5 4.56665 144.667 0 147C0 147 0 438.85 0 438.85L1024 438.85C1024 438.85 1024 150.25 1024 150.25C1023.73 139.75 1019.87 130.767 1012.4 123.3C1005.73 116.633 997.9 112.833 988.9 111.9Z" fill="#E6F4FA" transform="translate(0 276)" />
      <path d="M48.8499 184.3L32.2 182.5L0 243.55L197.7 265.1L159.3 143.75L148 142.55L135.8 44.6L100.75 40.8L48.8499 184.3L48.8499 184.3ZM474.85 62.45L461.8 62.45L446.45 148.25L429.45 148.25L422.3 186.5L396.45 107.65L359.75 111.5L348.5 173.2L332.7 174.85L321.3 284.05L405.6 275.2L405.55 275.5L575.8 275.5L553.25 207.9L533.95 207.9L516.9 0L488.45 0L474.85 62.45L474.85 62.45ZM784.45 146.65C784.45 146.65 747.75 150.5 747.75 150.5L736.5 212.2L720.7 213.85L709.3 323.05L881.05 305L839.25 271.1L825.7 272.55C825.7 272.55 784.45 146.65 784.45 146.65Z" fill="#D5EDF7" transform="translate(133 430)" />
      <path d="M955.4 44.9885C916.1 62.9885 875.917 64.4052 834.85 49.2385C796.783 35.1385 758.317 22.2719 719.45 10.6385C679.55 -1.26147 639.133 -3.17822 598.2 4.88849C557.333 12.9552 518.283 25.8385 481.05 43.5385C443.417 61.3052 403.583 70.3385 361.55 70.6385C319.583 71.0051 278.967 64.0552 239.7 49.7885C201.633 35.8552 162.817 24.2218 123.25 14.8885C81.8833 5.2218 40.8 5.98853 0 17.1885C0 17.1885 0 406.489 0 406.489L1023.95 406.489C1023.95 406.489 1023.95 17.1885 1023.95 17.1885C1000.68 25.4552 977.833 34.7218 955.4 44.9885Z" fill="#B6D9E7" transform="translate(0 618)" />
    </g>
    <g transform="translate(5120 0)">
      <path d="M1024 1024C1024 1024 1024 0 1024 0L0 0L0 1024C0 1024 1024 1024 1024 1024Z" fill="#D5EDF7" />
      <path d="M942.85 96.5C937.383 98.3666 932.433 101.533 928 106C921.8 112.167 918.083 119.383 916.85 127.65C909.75 128.517 903.033 130.217 896.7 132.75C895.133 128.65 892.567 124.967 889 121.7C882.667 115.767 874.967 112.8 865.9 112.8C856.867 112.8 849.15 115.767 842.75 121.7C841.817 122.6 840.933 123.533 840.1 124.5C824.267 110.7 805.333 103.8 783.3 103.8C778.833 103.8 774.483 104.1 770.25 104.7C769.917 104.367 769.583 104.05 769.25 103.75C762.917 97.7833 755.217 94.8 746.15 94.8C741.017 94.8 736.283 95.8 731.95 97.8C731.95 97.8 731.9 97.8 731.9 97.8C731.9 97.6333 731.917 97.4667 731.95 97.3C732.017 96.6 732.05 95.9167 732.05 95.25C732.05 94.95 732.05 94.7 732.05 94.5C732.05 94.1667 732.05 93.8167 732.05 93.45C731.783 85.4833 728.583 78.65 722.45 72.95C716.083 67.0167 708.383 64.05 699.35 64.05C697.35 64.05 695.45 64.2 693.65 64.5C692.15 59.7667 689.383 55.5334 685.35 51.8C678.983 45.8667 671.283 42.9 662.25 42.9C653.217 42.9 645.517 45.8667 639.15 51.8C634.783 55.8667 631.9 60.5167 630.5 65.75C616.367 68.45 603.75 74.4834 592.65 83.85C586.983 79.7167 580.367 77.65 572.8 77.65C563.767 77.65 556.05 80.6167 549.65 86.55C545.017 90.8833 542.067 95.9 540.8 101.6C535.167 100.5 529.3 99.95 523.2 99.95C521.267 99.95 519.333 100.017 517.4 100.15C516 95.0167 513.15 90.4333 508.85 86.4C502.517 80.4667 494.817 77.5 485.75 77.5C476.717 77.5 469 80.4667 462.6 86.4C462.367 86.6667 462.167 86.9 462 87.1C458.467 81.5667 454.1 76.3666 448.9 71.5C432.6 56.3333 412.933 48.7333 389.9 48.7C388.333 45.1333 385.983 41.9 382.85 39C376.483 33.0667 368.767 30.1 359.7 30.1C356.633 30.1 353.767 30.4333 351.1 31.1C350.5 23.7667 347.317 17.4333 341.55 12.1C335.183 6.16669 327.483 3.20001 318.45 3.20001C311.983 3.20001 306.25 4.70001 301.25 7.70001C290.117 2.56668 277.85 0 264.45 0C241.317 0 221.6 7.60001 205.3 22.8C197.733 29.8333 191.933 37.5334 187.9 45.9C185.633 45.4667 183.25 45.25 180.75 45.25C171.783 45.25 164.083 48.2 157.65 54.1C151.65 59.7 148.5 66.45 148.2 74.35C148.167 74.75 148.15 75.1833 148.15 75.65C148.15 76.5167 148.183 77.3834 148.25 78.25C148.55 81.85 149.483 85.25 151.05 88.45C149.95 90.75 149.15 93.1833 148.65 95.75C140.283 99.45 132.55 104.617 125.45 111.25C122.45 114.05 119.717 116.983 117.25 120.05C112.15 117.017 106.35 115.5 99.85 115.5C90.8167 115.5 83.1333 118.467 76.8 124.4C72.0333 128.8 69.05 133.883 67.85 139.65C67.3167 139.65 66.7833 139.65 66.25 139.65C53.25 139.65 41.3333 142.083 30.5 146.95C25.9 144.65 20.8333 143.5 15.3 143.5C9.66666 143.5 4.56667 144.667 0 147C0 147 0 398.85 0 398.85L1024 398.85C1024 398.85 1024 150.25 1024 150.25C1023.73 139.75 1019.87 130.767 1012.4 123.3C1005.73 116.633 997.9 112.833 988.9 111.9C987.467 109.833 985.817 107.867 983.95 106C976.183 98.2333 966.85 94.35 955.95 94.35C951.283 94.35 946.917 95.0667 942.85 96.5Z" fill="#E6F4FA" transform="translate(0 396)" />
      <path d="M886.4 181.4C886.4 181.4 892.5 181.7 892.5 181.7L875.5 134.5L854 180.1L860.85 180.4L842.75 216.1L848.8 217.3L834.15 255.6L859.95 256.05C859.95 256.05 858.45 264.05 858.45 264.05C850.617 262.35 842.75 260.05 834.85 257.15C796.783 243.05 758.317 230.183 719.45 218.55C679.55 206.65 639.133 204.733 598.2 212.8C591.367 214.133 584.6 215.617 577.9 217.25C577.9 217.25 575.25 195.95 575.25 195.95L621.5 190.7L599.85 142.95L607.75 143.5L584.6 72.85L594.45 72L557.3 0L532.55 77.5L543.5 76.55L522 137.55L531.95 138.2L516.5 202.65L557.9 197.95C557.9 197.95 556.45 222.9 556.45 222.9C530.55 230.367 505.417 239.883 481.05 251.45C465.25 258.917 449.05 264.85 432.45 269.25C432.45 269.25 430.8 256.05 430.8 256.05L459.45 252.8L446.05 223.25L450.9 223.6L436.6 179.85L442.7 179.35L419.7 134.75L404.35 182.75L411.15 182.15L397.85 219.9L404 220.3L394.45 260.2L420.05 257.3C420.05 257.3 419.2 272.4 419.2 272.4C400.467 276.367 381.25 278.417 361.55 278.55C319.583 278.917 278.967 271.967 239.7 257.7C206.4 245.5 172.517 235.067 138.05 226.4C138.05 226.4 139 200.95 139 200.95L185.45 203.1L171.75 152.55L179.45 154.35L167.9 80.9L177.75 81.65L152.55 4.60001L115.75 77.15L126.7 78L95.75 134.8L105.45 137L79.9 198.15L121.55 200.15C121.55 200.15 116.85 221.4 116.85 221.4C77.65 213.233 38.7 214.467 0 225.1C0 225.1 0 614.4 0 614.4L1023.95 614.4C1023.95 614.4 1023.95 225.1 1023.95 225.1C1000.68 233.367 977.833 242.633 955.4 252.9C927.6 265.633 899.367 270.067 870.7 266.2C870.7 266.2 870.75 256.2 870.75 256.2L899.55 256.7L890.1 225.65L894.85 226.65C894.85 226.65 886.4 181.4 886.4 181.4Z" fill="#B6D9E7" transform="translate(0 410)" />
    </g>
    <g transform="translate(4096 0)">
      <path d="M1024 1024C1024 1024 1024 0 1024 0L0 0L0 1024C0 1024 1024 1024 1024 1024Z" fill="#D5EDF7" />
      <path d="M1024 150.25C1023.73 139.75 1019.87 130.767 1012.4 123.3C1005.73 116.633 997.9 112.833 988.9 111.9C987.467 109.833 985.817 107.867 983.95 106C976.183 98.2333 966.85 94.35 955.95 94.35C951.283 94.35 946.917 95.0667 942.85 96.5C937.383 98.3667 932.433 101.533 928 106C921.8 112.167 918.083 119.383 916.85 127.65C909.75 128.517 903.033 130.217 896.7 132.75C895.133 128.65 892.567 124.967 889 121.7C882.667 115.767 874.967 112.8 865.9 112.8C856.867 112.8 849.15 115.767 842.75 121.7C841.817 122.6 840.933 123.533 840.1 124.5C824.267 110.7 805.333 103.8 783.3 103.8C778.833 103.8 774.483 104.1 770.25 104.7C769.917 104.367 769.583 104.05 769.25 103.75C762.917 97.7834 755.217 94.8 746.15 94.8C741.017 94.8 736.283 95.8 731.95 97.8C731.95 97.8 731.9 97.8 731.9 97.8C731.9 97.6334 731.917 97.4667 731.95 97.3C732.017 96.6 732.05 95.9167 732.05 95.25C732.05 94.95 732.05 94.7 732.05 94.5C732.05 94.1667 732.05 93.8167 732.05 93.45C731.783 85.4833 728.583 78.65 722.45 72.95C716.083 67.0167 708.383 64.05 699.35 64.05C697.35 64.05 695.45 64.2 693.65 64.5C692.15 59.7667 689.383 55.5334 685.35 51.8C678.983 45.8667 671.283 42.9 662.25 42.9C653.217 42.9 645.517 45.8667 639.15 51.8C634.783 55.8667 631.9 60.5167 630.5 65.75C616.367 68.45 603.75 74.4833 592.65 83.85C586.983 79.7167 580.367 77.65 572.8 77.65C563.767 77.65 556.05 80.6167 549.65 86.55C545.017 90.8834 542.067 95.9 540.8 101.6C535.167 100.5 529.3 99.95 523.2 99.95C521.267 99.95 519.333 100.017 517.4 100.15C516 95.0167 513.15 90.4333 508.85 86.4C502.517 80.4667 494.817 77.5 485.75 77.5C476.717 77.5 469 80.4667 462.6 86.4C462.367 86.6667 462.167 86.9 462 87.1C458.467 81.5667 454.1 76.3667 448.9 71.5C432.6 56.3333 412.933 48.7333 389.9 48.7C388.333 45.1333 385.983 41.9 382.85 39C376.483 33.0667 368.767 30.1 359.7 30.1C356.633 30.1 353.767 30.4333 351.1 31.1C350.5 23.7667 347.317 17.4333 341.55 12.1C335.183 6.16669 327.483 3.20001 318.45 3.20001C311.983 3.20001 306.25 4.70001 301.25 7.70001C290.117 2.56668 277.85 0 264.45 0C241.317 0 221.6 7.60001 205.3 22.8C197.733 29.8333 191.933 37.5334 187.9 45.9C185.633 45.4667 183.25 45.25 180.75 45.25C171.783 45.25 164.083 48.2 157.65 54.1C151.65 59.7 148.5 66.45 148.2 74.35C148.167 74.75 148.15 75.1833 148.15 75.65C148.15 76.5167 148.183 77.3833 148.25 78.25C148.55 81.85 149.483 85.25 151.05 88.45C149.95 90.75 149.15 93.1833 148.65 95.75C140.283 99.45 132.55 104.617 125.45 111.25C122.45 114.05 119.717 116.983 117.25 120.05C112.15 117.017 106.35 115.5 99.85 115.5C90.8167 115.5 83.1334 118.467 76.8 124.4C72.0333 128.8 69.05 133.883 67.85 139.65C67.3167 139.65 66.7833 139.65 66.25 139.65C53.25 139.65 41.3333 142.083 30.5 146.95C25.9 144.65 20.8333 143.5 15.3 143.5C9.66663 143.5 4.56665 144.667 0 147C0 147 0 398.85 0 398.85L1024 398.85C1024 398.85 1024 150.25 1024 150.25Z" fill="#E6F4FA" transform="translate(0 276)" />
      <path d="M1024 287.125C1024 287.125 1024 117.575 1024 117.575L981.2 159.025C981.2 159.025 836.6 18.975 836.6 18.975C827.333 11.2417 818.933 11.2417 811.4 18.975C811.4 18.975 682.5 143.775 682.5 143.775C682.5 143.775 638.5 101.225 638.5 101.225C631.333 95.125 625.017 95.125 619.55 101.225C619.55 101.225 571.8 147.425 571.8 147.425C571.8 147.425 505.8 83.525 505.8 83.525C499.433 77.8583 493.517 77.8583 488.05 83.525C488.05 83.525 438.4 131.625 438.4 131.625C438.4 131.625 308.2 5.52499 308.2 5.52499C300.8 -1.84167 293.35 -1.84167 285.85 5.52499C285.85 5.52499 173.55 117.575 173.55 117.575C173.55 117.575 123.25 68.875 123.25 68.875C117.383 62.975 111.517 62.975 105.65 68.875C105.65 68.875 27.7 144.375 27.7 144.375L0 117.575L0 287.125C0 287.125 1024 287.125 1024 287.125Z" fill="#D5EDF7" transform="translate(0 435)" />
      <path d="M481.05 43.5385C443.417 61.3051 403.583 70.3385 361.55 70.6385C319.583 71.0051 278.967 64.0551 239.7 49.7885C201.633 35.8552 162.817 24.2218 123.25 14.8885C81.8834 5.2218 40.8 5.98846 0 17.1885C0 17.1885 0 406.489 0 406.489L1023.95 406.489C1023.95 406.489 1023.95 17.1885 1023.95 17.1885C1000.68 25.4551 977.833 34.7218 955.4 44.9885C916.1 62.9885 875.917 64.4052 834.85 49.2385C796.783 35.1384 758.317 22.2718 719.45 10.6385C679.55 -1.26154 639.133 -3.17822 598.2 4.88849C557.333 12.9551 518.283 25.8384 481.05 43.5385Z" fill="#B6D9E7" transform="translate(0 618)" />
      <path d="M214.8 165L103.8 0L0 165L214.8 165L214.8 165ZM198.3 134.05C198.3 134.05 332.5 134.05 332.5 134.05L263.15 30.95C263.15 30.95 198.3 134.05 198.3 134.05Z" fill="#B6D9E7" transform="translate(324 531)" />
      <g transform="translate(437 220)">
        <g>
          <path d="M42.9 0C31.0334 0 20.9 4.18335 12.5 12.55C4.16663 20.95 0 31.0667 0 42.9C0 54.7667 4.16663 64.8667 12.5 73.2C20.9 81.6 31.0334 85.8 42.9 85.8C54.7334 85.8 64.8167 81.6 73.15 73.2C81.5834 64.8667 85.8 54.7667 85.8 42.9C85.8 31.0667 81.5834 20.95 73.15 12.55C64.8167 4.18335 54.7334 0 42.9 0C42.9 0 42.9 0 42.9 0ZM43.8999 12.9C52.7333 12.9 60.2666 16.0167 66.4999 22.25C72.7666 28.5167 75.8999 36.0667 75.8999 44.9C75.8999 53.7334 72.7666 61.2667 66.4999 67.5C60.2666 73.7667 52.7333 76.9 43.8999 76.9C35.0665 76.9 27.5166 73.7667 21.2499 67.5C15.0166 61.2667 11.8999 53.7334 11.8999 44.9C11.8999 36.0667 15.0166 28.5167 21.2499 22.25C27.5166 16.0167 35.0665 12.9 43.8999 12.9Z" fill="#FFFFFF" />
          <path d="M54.6 9.34998C48.3667 3.11667 40.8334 0 32 0C23.1666 0 15.6167 3.11667 9.34998 9.34998C3.1167 15.6167 0 23.1667 0 32C0 40.8333 3.1167 48.3667 9.34998 54.6C15.6167 60.8667 23.1666 64 32 64C40.8334 64 48.3667 60.8667 54.6 54.6C60.8667 48.3667 64 40.8333 64 32C64 23.1667 60.8667 15.6167 54.6 9.34998Z" fill="#FFFFFF" transform="translate(11.9 12.9)" />
        </g>
      </g>
    </g>
  </g>
</svg>